<?xml version="1.0" encoding="UTF-8" standalone="no"?>
<!--

Copyright 2012 Clayton Smith

This file is part of Ottawa Bus Follower.

Ottawa Bus Follower is free software; you can redistribute it and/or
modify it under the terms of the GNU General Public License as
published by the Free Software Foundation; either version 3, or (at
your option) any later version.

Ottawa Bus Follower is distributed in the hope that it will be
useful, but WITHOUT ANY WARRANTY; without even the implied warranty
of MERCHANTABILITY or FITNESS FOR A PARTICULAR PURPOSE.  See the
GNU General Public License for more details.

You should have received a copy of the GNU General Public License
along with Ottawa Bus Follower; see the file COPYING.  If not, see
<https://www.gnu.org/licenses/>.

-->
<!-- Created with Inkscape (http://www.inkscape.org/) -->

<svg
   xmlns:dc="http://purl.org/dc/elements/1.1/"
   xmlns:cc="http://creativecommons.org/ns#"
   xmlns:rdf="http://www.w3.org/1999/02/22-rdf-syntax-ns#"
   xmlns:svg="http://www.w3.org/2000/svg"
   xmlns="http://www.w3.org/2000/svg"
   xmlns:sodipodi="http://sodipodi.sourceforge.net/DTD/sodipodi-0.dtd"
   xmlns:inkscape="http://www.inkscape.org/namespaces/inkscape"
   width="27"
   height="27"
   id="svg2"
   version="1.1"
   inkscape:version="0.48.3.1 r9886"
   sodipodi:docname="launcher_icon.svg">
  <defs
     id="defs4" />
  <sodipodi:namedview
     id="base"
     pagecolor="#ffffff"
     bordercolor="#666666"
     borderopacity="1.0"
     inkscape:pageopacity="0.0"
     inkscape:pageshadow="2"
     inkscape:zoom="22.182201"
     inkscape:cx="9.306157"
     inkscape:cy="13.5"
     inkscape:document-units="px"
     inkscape:current-layer="layer1"
     showgrid="false"
     units="in"
     inkscape:window-width="927"
     inkscape:window-height="1028"
     inkscape:window-x="993"
     inkscape:window-y="24"
     inkscape:window-maximized="0">
    <inkscape:grid
       type="xygrid"
       id="grid3021"
       empspacing="5"
       visible="true"
       enabled="true"
       snapvisiblegridlinesonly="true"
       units="in"
       spacingx="0.0075in"
       spacingy="0.0075in" />
  </sodipodi:namedview>
  <metadata
     id="metadata7">
    <rdf:RDF>
      <cc:Work
         rdf:about="">
        <dc:format>image/svg+xml</dc:format>
        <dc:type
           rdf:resource="http://purl.org/dc/dcmitype/StillImage" />
        <dc:title />
      </cc:Work>
    </rdf:RDF>
  </metadata>
  <g
     inkscape:label="Layer 1"
     inkscape:groupmode="layer"
     id="layer1"
     transform="translate(0,-1025.3597)">
    <path
       inkscape:connector-curvature="0"
       style="fill:#d80000;fill-opacity:1;fill-rule:evenodd"
       id="path3164"
       d="m 13.499629,1025.3597 -2.35773,4.4098 c -0.267528,0.4795 -0.746869,0.4348 -1.2262158,0.1672 l -1.7069386,-0.8863 1.2722054,6.7737 c 0.2675289,1.2377 -0.5908207,1.2377 -1.0144452,0.7024 l -2.978925,-3.3445 -0.4836374,1.6985 c -0.055812,0.2231 -0.3009804,0.4571 -0.6688672,0.4014 l -3.76690694,-0.7941 0.98940534,3.6071 c 0.2117898,0.8029 0.3770163,1.135 -0.2138427,1.3468 l -1.34263373,0.6329 6.48447043,5.2821 c 0.2566556,0.1997 0.3863397,0.5591 0.294963,0.8845 l -0.5675309,1.8679 c 2.232695,-0.258 4.2344113,-0.4891 6.4670823,-0.7469 0.198362,0 0.328158,0.1073 0.326795,0.3369 l -0.398451,6.9017 0.891731,0.013 -5.12e-4,-29.2465 z m 7.42e-4,0 2.357732,4.4098 c 0.267527,0.4795 0.746867,0.4348 1.226214,0.1672 l 1.706939,-0.8863 -1.272207,6.7737 c -0.267534,1.2377 0.590823,1.2377 1.014448,0.7024 l 2.978923,-3.3445 0.483639,1.6985 c 0.05582,0.2231 0.30098,0.4571 0.668867,0.4014 l 3.766907,-0.7941 -0.989414,3.6071 c -0.211782,0.8029 -0.377009,1.135 0.213852,1.3468 l 1.342632,0.6329 -6.48447,5.2821 c -0.256654,0.1997 -0.386339,0.5591 -0.294963,0.8845 l 0.56753,1.8679 c -2.232694,-0.258 -4.234412,-0.4891 -6.467082,-0.7469 -0.198361,0 -0.328158,0.1073 -0.326795,0.3369 l 0.398451,6.9017 -0.891731,0.013 5.12e-4,-29.2465 z"
       class="fil0" />
    <path
       inkscape:connector-curvature="0"
       d="m 13.572619,1037.2121 c -0.847322,0 -2.017511,0.2421 -2.501719,0.4438 -0.484208,0.2018 -0.807012,0.4036 -0.907879,0.9079 l -0.363134,2.7962 0,3.8529 0.625404,0 0,0.6042 c 0,0.7367 1.07808,0.7367 1.07808,0 l 0,-0.6042 1.990316,0 0.0063,0 2.069249,0 0,0.6042 c 0,0.7367 1.07808,0.7367 1.07808,0 l 0,-0.6042 0.625403,0 0,-3.8529 -0.363134,-2.7962 c -0.100867,-0.5043 -0.423671,-0.7061 -0.90788,-0.9079 -0.484207,-0.2017 -1.654396,-0.4438 -2.501718,-0.4438"
       id="path3396"
       style="fill:#ffffff;stroke:none" />
    <path
       inkscape:connector-curvature="0"
       d="m 16.107847,1044.0051 c 0.285591,0 0.517127,-0.2316 0.517127,-0.5172 0,-0.2857 -0.231536,-0.5172 -0.517127,-0.5172 -0.285591,0 -0.517149,0.2315 -0.517149,0.5172 0,0.2856 0.231559,0.5172 0.517149,0.5172 z"
       id="path3404"
       style="fill:#d80000;stroke:none;fill-opacity:1" />
    <path
       inkscape:connector-curvature="0"
       d="m 10.964772,1044.0051 c -0.285591,0 -0.517128,-0.2316 -0.517128,-0.5172 0,-0.2857 0.231537,-0.5172 0.517128,-0.5172 0.285591,0 0.51715,0.2315 0.51715,0.5172 0,0.2856 -0.231559,0.5172 -0.51715,0.5172 z"
       id="path3410"
       style="fill:#d80000;stroke:none;fill-opacity:1" />
    <path
       inkscape:connector-curvature="0"
       d="m 13.496316,1038.3722 -1.49733,0 c -0.302639,0 -0.302639,-0.454 0,-0.454 l 1.501014,0 1.573633,0 c 0.302641,0 0.302641,0.454 0,0.454 l -1.577317,0 z"
       id="path3414"
       style="fill:#d80000;stroke:none;fill-opacity:1" />
    <path
       inkscape:connector-curvature="0"
       d="m 13.496316,1038.8305 -2.313204,0 c -0.319689,0 -0.40321,0.1624 -0.442026,0.4088 l -0.282643,2.028 c -0.02638,0.1944 0.02987,0.3874 0.298429,0.3874 l 2.743128,0 2.815747,0 c 0.268562,0 0.324805,-0.193 0.298429,-0.3874 l -0.282643,-2.028 c -0.03881,-0.2464 -0.122337,-0.4088 -0.442027,-0.4088 l -2.39319,0 z"
       id="path3416"
       style="fill:#d80000;stroke:none;fill-opacity:1" />
  </g>
</svg>
